# xmcd
#
# Track frame offsets:
#	150
#	27626
#	60988
#	93470
#	129317
#	156902
#	179951
#	201483
#
# Disc length: 3026 seconds
#
# Revision: 15
# Processed by: cddbd v1.5.2PL0 Copyright (c) Steve Scherf et al.
# Submitted via: audiograbber 1.83.01
#
DISCID=740bd008
DTITLE=Pet Shop Boys - Fundamental (Bonus CD 'Fundamentalism')
DYEAR=2006
DGENRE=Synthpop
TTITLE0=Fugitive [Richard X Extended Mix]
TTITLE1=Sodom [Trentemoeller Remix]
TTITLE2=Psychological [Alter Ego Remix]
TTITLE3=Flamboyant [Michael Mayer Kompakt Mix]
TTITLE4=I'm With Stupid [Melnyk Heavy Petting Mix]
TTITLE5=In Private [Stuart Crichton Club Mix]
TTITLE6=Minimal [Lobe Remix]
TTITLE7=Gomorrah [Dettinger Remix]
EXTD=
EXTT0=
EXTT1=
EXTT2=
EXTT3=
EXTT4=
EXTT5=
EXTT6=
EXTT7=
PLAYORDER=
